<svg width="24" height="24" viewBox="0 0 24 24" fill="none" xmlns="http://www.w3.org/2000/svg">
<path d="M16.7 18.98H7.29999C6.87999 18.98 6.40999 18.65 6.26999 18.25L2.12999 6.66999C1.53999 5.00999 2.22999 4.49999 3.64999 5.51999L7.54999 8.30999C8.19999 8.75999 8.93999 8.52999 9.21999 7.79999L10.98 3.10999C11.54 1.60999 12.47 1.60999 13.03 3.10999L14.79 7.79999C15.07 8.52999 15.81 8.75999 16.45 8.30999L20.11 5.69999C21.67 4.57999 22.42 5.14999 21.78 6.95999L17.74 18.27C17.59 18.65 17.12 18.98 16.7 18.98Z" stroke="#0B251C" stroke-width="2" stroke-linecap="round" stroke-linejoin="round"/>
<path d="M6.5 22H17.5" stroke="#0B251C" stroke-width="2" stroke-linecap="round" stroke-linejoin="round"/>
<path d="M9.5 14H14.5" stroke="#0B251C" stroke-width="2" stroke-linecap="round" stroke-linejoin="round"/>
</svg>
