<svg width="142" height="34" viewBox="0 0 142 34" fill="none" xmlns="http://www.w3.org/2000/svg">
<g clip-path="url(#clip0_1_112)">
<path d="M43.7376 23.3339H53.6491V20.3486H47.2604V9.1037H43.7376V23.3339Z" fill="#0B251C"/>
<path d="M59.5212 21.3437C58.1081 21.3437 57.3717 20.1098 57.3717 18.2588C57.3717 16.4079 58.1081 15.154 59.5212 15.154C60.9342 15.154 61.6905 16.4079 61.6905 18.2588C61.6905 20.1098 60.9342 21.3437 59.5212 21.3437ZM59.5411 23.6524C62.825 23.6524 64.9744 21.3238 64.9744 18.2588C64.9744 15.1939 62.825 12.8653 59.5411 12.8653C56.2771 12.8653 54.0878 15.1939 54.0878 18.2588C54.0878 21.3238 56.2771 23.6524 59.5411 23.6524Z" fill="#0B251C"/>
<path d="M70.6586 26.8567C72.1712 26.8567 73.5047 26.5183 74.4003 25.7222C75.2163 24.9859 75.7537 23.8713 75.7537 22.3388V13.1439H72.6489V14.2385H72.6091C72.012 13.3827 71.0965 12.8454 69.7431 12.8454C67.2155 12.8454 65.4641 14.955 65.4641 17.9404C65.4641 21.0651 67.5937 22.7767 69.8825 22.7767C71.1164 22.7767 71.8926 22.2791 72.4897 21.6024H72.5693V22.6175C72.5693 23.8514 71.9921 24.5679 70.6188 24.5679C69.5441 24.5679 69.0067 24.1101 68.8276 23.5728H65.683C66.0015 25.7023 67.8524 26.8567 70.6586 26.8567ZM70.6387 20.3685C69.4247 20.3685 68.6286 19.3734 68.6286 17.8409C68.6286 16.2885 69.4247 15.2934 70.6387 15.2934C71.9921 15.2934 72.7086 16.4477 72.7086 17.821C72.7086 19.254 72.0518 20.3685 70.6387 20.3685Z" fill="#0B251C"/>
<path d="M82.1377 21.3437C80.7246 21.3437 79.9882 20.1098 79.9882 18.2588C79.9882 16.4079 80.7246 15.154 82.1377 15.154C83.5507 15.154 84.307 16.4079 84.307 18.2588C84.307 20.1098 83.5507 21.3437 82.1377 21.3437ZM82.1576 23.6524C85.4415 23.6524 87.5909 21.3238 87.5909 18.2588C87.5909 15.1939 85.4415 12.8653 82.1576 12.8653C78.8936 12.8653 76.7043 15.1939 76.7043 18.2588C76.7043 21.3238 78.8936 23.6524 82.1576 23.6524Z" fill="#0B251C"/>
<path d="M88.5379 23.3339H91.782V13.1439H88.5379V23.3339ZM88.5379 11.7308H91.782V9.1037H88.5379V11.7308Z" fill="#0B251C"/>
<path d="M93.1901 26.6975H96.4342V22.2791H96.474C97.1109 23.1349 98.0463 23.6524 99.3599 23.6524C102.027 23.6524 103.798 21.5427 103.798 18.2389C103.798 15.174 102.146 12.8454 99.4395 12.8454C98.0463 12.8454 97.0512 13.4623 96.3546 14.3779H96.2949V13.1439H93.1901V26.6975ZM98.524 21.1447C97.1308 21.1447 96.3347 20.0102 96.3347 18.3583C96.3347 16.7064 97.0512 15.4526 98.4643 15.4526C99.8574 15.4526 100.514 16.6069 100.514 18.3583C100.514 20.0899 99.7579 21.1447 98.524 21.1447Z" fill="#0B251C"/>
<path d="M109.08 23.6524C111.747 23.6524 113.717 22.498 113.717 20.269C113.717 17.6618 111.607 17.204 109.816 16.9055C108.522 16.6666 107.368 16.5671 107.368 15.8506C107.368 15.2138 107.985 14.9152 108.781 14.9152C109.677 14.9152 110.294 15.1939 110.413 16.1094H113.399C113.239 14.0992 111.687 12.8454 108.801 12.8454C106.393 12.8454 104.403 13.9599 104.403 16.1094C104.403 18.4977 106.293 18.9753 108.065 19.2739C109.418 19.5127 110.652 19.6122 110.652 20.5277C110.652 21.1845 110.035 21.5427 109.06 21.5427C107.985 21.5427 107.308 21.0452 107.189 20.0301H104.124C104.224 22.2791 106.094 23.6524 109.08 23.6524Z" fill="#0B251C"/>
<path d="M118.124 23.6325C119.537 23.6325 120.432 23.0752 121.169 22.0801H121.229V23.3339H124.333V13.1439H121.089V18.836C121.089 20.05 120.413 20.8859 119.298 20.8859C118.263 20.8859 117.766 20.269 117.766 19.1544V13.1439H114.541V19.8311C114.541 22.1 115.775 23.6325 118.124 23.6325Z" fill="#0B251C"/>
<path d="M125.744 23.334H128.988V17.622C128.988 16.4079 129.585 15.5521 130.6 15.5521C131.575 15.5521 132.033 16.189 132.033 17.2836V23.334H135.277V17.622C135.277 16.4079 135.854 15.5521 136.889 15.5521C137.864 15.5521 138.322 16.189 138.322 17.2836V23.334H141.566V16.7064C141.566 14.4177 140.412 12.8454 138.103 12.8454C136.79 12.8454 135.695 13.4026 134.899 14.6366H134.859C134.342 13.542 133.327 12.8454 131.993 12.8454C130.52 12.8454 129.545 13.542 128.908 14.5968H128.849V13.1439H125.744V23.334Z" fill="#0B251C"/>
<path fill-rule="evenodd" clip-rule="evenodd" d="M17.8844 33.2852C27.0442 33.2852 34.4697 25.8597 34.4697 16.6998C34.4697 7.54 27.0442 0.114471 17.8844 0.114471C8.72449 0.114471 1.29898 7.54 1.29898 16.6998C1.29898 25.8597 8.72449 33.2852 17.8844 33.2852ZM23.0584 7.84063C23.3103 6.94602 22.4421 6.41702 21.6492 6.98189L10.5811 14.8668C9.72121 15.4794 9.85646 16.6998 10.7842 16.6998H13.6988V16.6773H19.3791L14.7507 18.3103L12.7103 25.5591C12.4585 26.4537 13.3265 26.9827 14.1195 26.4178L25.1876 18.5329C26.0475 17.9203 25.9122 16.6998 24.9845 16.6998H20.5646L23.0584 7.84063Z" fill="#0B251C"/>
</g>
<defs>
<clipPath id="clip0_1_112">
<rect width="140.976" height="34" fill="white" transform="translate(0.731689)"/>
</clipPath>
</defs>
</svg>
